<?xml version="1.0" standalone="no"?>
<!DOCTYPE svg PUBLIC "-//W3C//DTD SVG 20010904//EN"
 "http://www.w3.org/TR/2001/REC-SVG-20010904/DTD/svg10.dtd">
<svg version="1.0" xmlns="http://www.w3.org/2000/svg"
 width="194.000000pt" height="194.000000pt" viewBox="0 0 194.000000 194.000000"
 preserveAspectRatio="xMidYMid meet">
<metadata>
Created by potrace 1.11, written by Peter Selinger 2001-2013
</metadata>
<g transform="translate(0.000000,194.000000) scale(0.100000,-0.100000)"
fill="#000000" stroke="none">
<path d="M636 1892 c-2 -1 -14 -5 -27 -7 -50 -10 -129 -38 -129 -46 0 -5 -5
-9 -12 -9 -16 0 -75 -67 -99 -112 -11 -21 -17 -38 -13 -38 4 0 1 -6 -5 -14
-15 -17 -21 -105 -9 -128 6 -12 5 -18 -2 -18 -6 0 -8 -4 -5 -10 8 -13 16 -46
20 -85 1 -16 4 -30 5 -30 1 0 4 -9 6 -20 29 -122 25 -275 -8 -275 -5 0 -7 -4
-4 -8 10 -16 -54 -43 -106 -45 l-53 -2 -2 -70 c-2 -80 2 -85 70 -85 26 0 47
-4 47 -10 0 -5 3 -9 8 -7 4 1 20 -10 36 -25 20 -18 27 -32 23 -47 -3 -13 -1
-19 5 -15 17 11 -3 -223 -20 -236 -4 -3 -8 -14 -8 -25 -1 -11 -5 -45 -9 -75
-12 -90 -12 -113 1 -162 6 -26 9 -49 6 -52 -3 -3 0 -6 6 -6 6 0 13 -9 17 -20
9 -27 102 -120 120 -120 8 0 15 -5 15 -10 0 -6 3 -9 8 -9 19 3 43 -2 39 -8 -3
-5 13 -9 36 -10 22 -2 44 -8 49 -15 6 -10 8 -10 8 0 0 7 6 12 13 11 29 -4 39
2 33 17 -4 9 -1 23 5 30 6 8 8 14 3 14 -5 0 -9 15 -8 33 0 48 -3 53 -40 54
-48 1 -105 31 -126 65 -17 28 -18 51 -6 118 2 14 7 45 11 70 3 25 9 61 12 80
10 55 4 259 -7 270 -13 13 -30 51 -30 67 0 9 -3 13 -7 10 -6 -7 -29 19 -32 35
-1 5 -15 21 -32 37 -29 28 -30 29 -9 36 12 4 19 9 16 12 -3 3 5 14 19 25 28
22 74 111 82 160 7 40 7 157 -1 218 -13 109 -17 136 -23 160 -11 44 -11 65 1
72 8 5 7 8 -2 8 -10 0 -10 5 -1 22 21 40 69 70 113 72 14 1 28 5 31 8 4 4 12
5 19 2 10 -4 15 73 8 136 -2 13 -46 22 -56 12z"/>
<path d="M1253 1882 c-5 -12 -7 -88 -4 -128 1 -10 11 -13 49 -15 30 -1 112
-42 112 -56 0 -7 4 -13 9 -13 12 0 7 -97 -10 -190 -7 -41 -14 -129 -14 -195 0
-111 2 -124 27 -176 15 -30 46 -75 67 -98 l40 -43 -31 -32 c-40 -39 -89 -116
-82 -127 3 -5 1 -9 -3 -9 -5 0 -10 -10 -12 -22 -8 -46 -5 -254 4 -298 4 -25 9
-55 9 -67 1 -13 4 -23 7 -23 3 0 5 -26 4 -57 -2 -79 -3 -85 -15 -78 -5 3 -10
0 -10 -8 0 -18 -70 -47 -115 -49 -31 -1 -33 -3 -37 -42 -1 -23 -2 -58 0 -78
l3 -37 42 6 c23 3 51 6 62 8 11 1 21 4 23 5 1 1 5 3 10 5 51 14 62 18 62 26 0
5 6 9 14 9 7 0 19 7 26 15 7 8 17 12 23 8 6 -3 7 -1 3 6 -4 6 -1 14 8 17 8 3
18 14 21 25 4 11 11 16 17 13 7 -5 8 -2 3 6 -4 7 -4 15 1 19 24 16 38 72 39
156 1 50 -1 95 -4 100 -3 6 -6 15 -7 20 -1 6 -5 27 -8 49 -3 21 -8 41 -10 45
-15 24 -26 191 -14 191 6 0 7 7 4 16 -3 9 3 31 15 50 19 31 26 36 45 33 4 0
10 4 14 11 4 6 30 11 58 12 57 0 54 -6 54 88 0 28 0 54 -1 58 -1 4 -26 9 -56
10 -65 1 -130 41 -122 74 3 10 1 16 -4 12 -5 -3 -9 1 -10 8 0 7 -2 25 -4 41
-2 15 0 25 5 22 5 -3 5 8 0 25 -5 16 -6 30 -2 30 4 0 7 15 8 33 1 17 4 44 8
60 7 31 17 77 20 92 1 6 5 16 9 23 5 7 3 12 -3 12 -7 0 -8 6 -2 18 4 9 8 24 7
32 0 8 4 18 10 22 7 5 7 8 0 8 -6 0 -10 19 -9 44 1 27 -7 60 -21 90 -12 25
-20 46 -18 46 2 0 -11 16 -29 36 -32 35 -118 101 -118 90 0 -3 -11 -1 -25 4
-15 6 -51 14 -81 19 -46 7 -57 6 -61 -7z"/>
</g>
</svg>
